<?xml version="1.0" encoding="utf-8"?>
<!-- Generator: Adobe Illustrator 25.4.2, SVG Export Plug-In . SVG Version: 6.00 Build 0)  -->
<svg version="1.1" id="Calque_1" xmlns="http://www.w3.org/2000/svg" xmlns:xlink="http://www.w3.org/1999/xlink" x="0px" y="0px"
	 viewBox="0 0 2659.3 1466" style="enable-background:new 0 0 2659.3 1466;" xml:space="preserve">
<style type="text/css">
	.st0{fill:url(#SVGID_1_);}
	.st1{fill:#FFFFFF;}
	.st2{fill:url(#SVGID_00000020380726687540415330000005091885342809987735_);}
	.st3{fill:url(#SVGID_00000003092573093750467550000000626582376913352359_);}
	.st4{fill:url(#SVGID_00000085214662051584752350000010184953640300158137_);}
	.st5{fill:url(#SVGID_00000072255321686483253760000014511184023357720505_);}
	.st6{fill:url(#SVGID_00000154415344624599178840000012021170293153017777_);}
</style>
<g id="Calque_1_00000103224524709847825600000010027560095028638128_">
	
		<linearGradient id="SVGID_1_" gradientUnits="userSpaceOnUse" x1="1327.66" y1="1467.4589" x2="1331.62" y2="-5.6592" gradientTransform="matrix(1 0 0 -1 0 1463.8899)">
		<stop  offset="0" style="stop-color:#1A3139"/>
		<stop  offset="0.1816" style="stop-color:#1F3740"/>
		<stop  offset="0.4047" style="stop-color:#192F37"/>
		<stop  offset="0.51" style="stop-color:#26414C"/>
		<stop  offset="0.8024" style="stop-color:#517C91"/>
		<stop  offset="0.8764" style="stop-color:#78C6EE"/>
		<stop  offset="0.9586" style="stop-color:#90D2F5"/>
	</linearGradient>
	<rect y="0" class="st0" width="2659.3" height="1466"/>
</g>
<g id="montagne">
	<path class="st1" d="M502.6,1143.9c-14.6,3.9-45.6,14-39.8,21.4c6.5,8.4,58.5,11.5,98.8,9c40.8-2.6,39.8-9,77.4-11.8
		c60.7-4.6,92.4,10.1,126.4,2c17-4,29.2-12.5,23.7-18.3c-6.2-6.6-44.3-8.1-120.2-11c-50.4-1.9-93-2.5-134.8,2.8
		C523.4,1139.2,512.9,1141.2,502.6,1143.9z"/>
	<path class="st1" d="M103.4,1077.2c62.6,5.8,73,1.7,120.6,6.5c59.6,6,85.9,16.7,108.9,12.3c5.3-1,7.2-2.2,16.9-8.9
		c24.1-16.4,36.1-24.7,34.9-25.9c-16.1-16.7-344.9-3.5-344.7,7.2C39.9,1071.3,65.5,1073.7,103.4,1077.2z"/>
	
		<linearGradient id="SVGID_00000080909279249116996430000000709878914377695625_" gradientUnits="userSpaceOnUse" x1="2355.8821" y1="789.1876" x2="2373.1519" y2="-31.2325" gradientTransform="matrix(1 0 0 -1 0 1463.8899)">
		<stop  offset="2.000000e-02" style="stop-color:#E4F4FE"/>
		<stop  offset="6.000000e-02" style="stop-color:#C9E7F7"/>
		<stop  offset="0.12" style="stop-color:#9FD2ED"/>
		<stop  offset="0.16" style="stop-color:#8FCAE9"/>
		<stop  offset="0.33" style="stop-color:#8FCAE9"/>
	</linearGradient>
	<path style="fill:url(#SVGID_00000080909279249116996430000000709878914377695625_);" d="M2110.5,1097
		c14.3-172.7,49.8-294.9,78.6-372.8c5-13.7,35.4-94,64.6-91.1c31.4,3.2,33,99.8,89.3,115.5c20.8,5.8,39.8-2,44.2-4
		c68.8-30.8,50.3-171.1,83.8-177.7c27.1-5.3,65.4,81.9,71.5,96c89.3,206.7,74.6,436.1,74.6,436.1l0,0L2110.5,1097z"/>
	
		<linearGradient id="SVGID_00000111877468405901640430000015335279178594302341_" gradientUnits="userSpaceOnUse" x1="1428.9484" y1="658.0201" x2="1443.7284" y2="-43.8999" gradientTransform="matrix(0.9985 -5.390453e-02 -5.390453e-02 -0.9985 9.7564 1607.5032)">
		<stop  offset="2.000000e-02" style="stop-color:#E4F4FE"/>
		<stop  offset="6.000000e-02" style="stop-color:#C9E7F7"/>
		<stop  offset="0.12" style="stop-color:#9FD2ED"/>
		<stop  offset="0.16" style="stop-color:#8FCAE9"/>
		<stop  offset="0.33" style="stop-color:#8FCAE9"/>
	</linearGradient>
	<path style="fill:url(#SVGID_00000111877468405901640430000015335279178594302341_);" d="M1080.7,1224
		c-4.1-109.1,24.5-187.1,44.9-230.3c20.7-43.8,54.1-114.5,108.3-120.5c39.7-4.4,51.1,30.4,89.9,26.5
		c70.3-6.9,92.7-127.2,136.8-120.5c18.8,2.8,32.9,27.8,61.3,77.6c8.2,14.3,15.6,29.1,22.1,44.3c47.5,111.9,227.9,311.2,229.6,313.2
		l0,0L1080.7,1224z"/>
	<path class="st1" d="M2031.9,1189.9c12.7-0.1,74-0.6,138.9,23.2c35.4,13,93,41,85.8,58.9c-9,22.6-118.1,21.2-189.9,13.2
		c-66.6-7.3-114.2-21.7-120.5-23.6c-130.2-38.8-303.9-20.4-500.4-14.7c-310.5,8.9-660.3-14.6-663.8-48.6c-0.2-2.3,1.1-5.6,14.3-13.2
		c76.7-44.2,195.7-28.6,222.7-25.1c105.2,13.4,221.8,17.3,454.9,25.3C1594.3,1189.3,1888.6,1191,2031.9,1189.9z"/>
	
		<linearGradient id="SVGID_00000047755151590864501740000015734191669819493786_" gradientUnits="userSpaceOnUse" x1="246.7959" y1="614.2587" x2="263.2058" y2="-165.1013" gradientTransform="matrix(1 0 0 -1 0 1463.8899)">
		<stop  offset="2.000000e-02" style="stop-color:#E4F4FE"/>
		<stop  offset="6.000000e-02" style="stop-color:#C9E7F7"/>
		<stop  offset="0.12" style="stop-color:#9FD2ED"/>
		<stop  offset="0.16" style="stop-color:#8FCAE9"/>
		<stop  offset="0.33" style="stop-color:#8FCAE9"/>
	</linearGradient>
	<path style="fill:url(#SVGID_00000047755151590864501740000015734191669819493786_);" d="M2,1250.4
		c29.9-226.4,89.7-356.6,132.2-428c13.6-22.9,50.5-83.1,68.7-70.2c25.6,18.3,15.8,145.8,31.7,149.8c7.8,2,12.1-28.3,37.3-75.4
		c16.5-30.9,24.8-46.4,34.2-49c27-7.5,61.6,87.1,86.3,154.5c47.5,129.8,86.9,238.6,116.2,320.2L2,1250.4z"/>
	<path class="st1" d="M273.3,465.3c3.2,0,3.2-5,0-5S270,465.3,273.3,465.3z"/>
	<path class="st1" d="M438.7,536.8c3.2,0,3.2-5,0-5S435.5,536.8,438.7,536.8z"/>
	<path class="st1" d="M471.4,426.5c3.2,0,3.2-5,0-5S468.2,426.5,471.4,426.5z"/>
	<path class="st1" d="M252.8,626.7c3.2,0,3.2-5,0-5S249.6,626.7,252.8,626.7z"/>
	<path class="st1" d="M518.4,810.5c3.2,0,3.2-5,0-5S515.2,810.5,518.4,810.5z"/>
	<path class="st1" d="M767.6,651.2c3.2,0,3.2-5,0-5S764.3,651.2,767.6,651.2z"/>
	<path class="st1" d="M521.7,1390c92.7-24.5,143.2-18.4,155.5-16.7c21.2,2.9,53.4,7.7,68.9,26.1c0.9,1.1,17.5,21.3,5.4,35.5
		c-16.6,19.5-71.4,8.7-210.6,5.2c-86.7-2.1-122,0.7-124.9-7.3C411.1,1419.2,507.8,1393.7,521.7,1390z"/>
	<path class="st1" d="M640.9,514.3c3.2,0,3.2-5,0-5S637.7,514.3,640.9,514.3z"/>
	<path class="st1" d="M520.4,641c3.2,0,3.2-5,0-5S517.2,641,520.4,641z"/>
	<path class="st1" d="M1080.1,773.8c3.2,0,3.2-5,0-5S1076.9,773.8,1080.1,773.8z"/>
	<path class="st1" d="M1132.9,1310.7c56-36.4,116.2,24.8,241,26.6c55.1,0.8,49.6-11.1,175.7-36.8c77.7-15.8,218.7-39.7,377.9-18.4
		c59.7,8,100.7,19.5,126.2,54.2c21.4,29,31,73.2,15.1,108.8c-25.7,57.4-106.4,66-143.4,69.9c-82.8,8.8-104.7-21.4-200.2-32.7
		c-33.2-3.9-101.6,4.1-236.9,20.4c-155.7,18.8-184.6,25.5-241,14.3c-44.7-8.8-137.3-27.2-156-90.6
		C1079.9,1387.8,1096.4,1334.4,1132.9,1310.7z"/>
	<path class="st1" d="M1071.9,444.9c3.2,0,3.2-5,0-5S1068.7,444.9,1071.9,444.9z"/>
	<path class="st1" d="M1178.1,553.2c3.2,0,3.2-5,0-5S1174.9,553.2,1178.1,553.2z"/>
	<path class="st1" d="M1255.7,467.4c3.2,0,3.2-5,0-5S1252.5,467.4,1255.7,467.4z"/>
	<g id="Calque_3">
		<path class="st1" d="M302.3,709.1c3.2,0,3.2-5,0-5S299.1,709.1,302.3,709.1z"/>
		<path class="st1" d="M636.3,1253c32.6-4.1,38.1-0.7,67.5-3.2c21.1-1.8,73.6-6.3,79.7-21.8c4.8-12.2-21-26.4-37-32.7
			c-25.6-10-52-9.2-83.5-8.3c-25.1,0.7-51.8,1.5-80.7,10.7c-31.3,9.9-26.6,17.5-67.4,34.9c-35.9,15.3-59.8,18.1-58.9,25.4
			c1,7.8,28.8,12.5,38.9,14.2c14.9,2.5,30.1,3,45.1,1.4c17.4-2,20.8-5.4,45-11.4C602,1258.2,619.1,1255.1,636.3,1253z"/>
		<path class="st1" d="M414.6,1143.7c-2.9-6.8,16.7-18.4,32.4-24c8.8-3.2,33.5-11.9,56-2.1c9.3,4.1,23.6,13.7,21,21.3
			c-4.6,13.3-57.6,11.6-76.2,11C430.5,1149.4,416.8,1148.8,414.6,1143.7z"/>
		<path class="st1" d="M111.6,1367.4c30.7-23.3,46-34.9,68.9-38.3c37.4-5.5,67,12.8,79.7,20.7c5,3.1,52,32.7,46,52.8
			c-2.2,7.4-12.2,15.3-91.1,19.9c-76.9,4.5-142.9,8.4-147.8-10C64.6,1403,80.3,1391.1,111.6,1367.4z"/>
		<path class="st1" d="M52.6,1231c46.1-6.8,49.4-19.4,80.4-24c50.3-7.4,57,23.3,137.9,27.7c12.3,0.7,33,1.1,63.6,4.9
			c49.2,6.2,55.3,12.7,57.5,16.6c6.5,11.7-5.5,30.9-23,40c-7,3.6-20.6,8.6-98-3.7c-41.4-6.6-50.6-10.1-76.6-10.4
			c-23.8-0.3-41-0.6-59,7.4c-21.5,9.4-19.2,19.6-46.7,35.7c-15.9,9.3-31.2,18.3-49.8,16c-22.5-2.8-35.1-20.3-39.1-25.8
			c-3-4.2-14.5-20.7-8.4-41.8c0.8-2.8,6.4-20.9,26.8-32.6C30.7,1233.7,42.7,1232.5,52.6,1231z"/>
	</g>
	<path class="st1" d="M1143.4,385.7c3.2,0,3.2-5,0-5S1140.2,385.7,1143.4,385.7z"/>
	
		<linearGradient id="SVGID_00000128476726715372410760000007666421632371417781_" gradientUnits="userSpaceOnUse" x1="2114.2952" y1="467.2942" x2="2132.8853" y2="-416.1958" gradientTransform="matrix(0.9985 -5.390453e-02 -5.390453e-02 -0.9985 9.7564 1607.5032)">
		<stop  offset="2.000000e-02" style="stop-color:#E4F4FE"/>
		<stop  offset="6.000000e-02" style="stop-color:#C9E7F7"/>
		<stop  offset="0.12" style="stop-color:#9FD2ED"/>
		<stop  offset="0.16" style="stop-color:#8FCAE9"/>
		<stop  offset="0.33" style="stop-color:#8FCAE9"/>
	</linearGradient>
	<path style="fill:url(#SVGID_00000128476726715372410760000007666421632371417781_);" d="M1560.1,1448.8
		c25.8-33.1,67.2-86.2,106.2-136.3c233.7-300.1,306.2-395,384-382c58.1,9.8,71.7,71.8,128.7,65.4c70.1-7.9,96.2-107.1,134.8-98
		c38.3,9,20.1,108.7,91.9,157.3c26.4,17.9,52.9,20.7,69.4,22.5c99,10.6,173.7-66.7,185.9-79.7c-1.4,68.1-2.7,136.2-4.1,204.3
		c1.3,82.2,2.7,164.4,4.1,246.6L1560.1,1448.8L1560.1,1448.8z"/>
	<path class="st1" d="M1194.5,291.7c3.2,0,3.2-5,0-5S1191.2,291.7,1194.5,291.7z"/>
	<path class="st1" d="M1159.7,181.4c3.2,0,3.2-5,0-5S1156.5,181.4,1159.7,181.4z"/>
	<path class="st1" d="M1280.2,103.8c3.2,0,3.2-5,0-5S1277,103.8,1280.2,103.8z"/>
	<path class="st1" d="M830.9,383.6c3.2,0,3.2-5,0-5S827.7,383.6,830.9,383.6z"/>
	<path class="st1" d="M628.7,216.1c3.2,0,3.2-5,0-5S625.4,216.1,628.7,216.1z"/>
	<path class="st1" d="M679.7,375.5c3.2,0,3.2-5,0-5S676.5,375.5,679.7,375.5z"/>
	<path class="st1" d="M763.5,330.5c3.2,0,3.2-5,0-5S760.3,330.5,763.5,330.5z"/>
	<path class="st1" d="M418.3,402c3.2,0,3.2-5,0-5S415.1,402,418.3,402z"/>
	<path class="st1" d="M442.8,375.5c3.2,0,3.2-5,0-5S439.6,375.5,442.8,375.5z"/>
	<path class="st1" d="M144.6,103.8c3.2,0,3.2-5,0-5S141.4,103.8,144.6,103.8z"/>
	<path class="st1" d="M205.9,306c3.2,0,3.2-5,0-5S202.6,306,205.9,306z"/>
	<path class="st1" d="M267.1,195.7c3.2,0,3.2-5,0-5S263.9,195.7,267.1,195.7z"/>
	<path class="st1" d="M165,197.8c3.2,0,3.2-5,0-5S161.8,197.8,165,197.8z"/>
	<path class="st1" d="M236.5,244.7c3.2,0,3.2-5,0-5S233.3,244.7,236.5,244.7z"/>
	<path class="st1" d="M132.3,330.5c3.2,0,3.2-5,0-5S129.1,330.5,132.3,330.5z"/>
	<path class="st1" d="M136.4,598.1c3.2,0,3.2-5,0-5S133.2,598.1,136.4,598.1z"/>
	<path class="st1" d="M116,716.6c3.2,0,3.2-5,0-5S112.8,716.6,116,716.6z"/>
	<path class="st1" d="M52.7,620.6c3.2,0,3.2-5,0-5S49.4,620.6,52.7,620.6z"/>
	<path class="st1" d="M138.5,808.5c3.2,0,3.2-5,0-5S135.2,808.5,138.5,808.5z"/>
	<path class="st1" d="M275.3,824.8c3.2,0,3.2-5,0-5S272.1,824.8,275.3,824.8z"/>
	<path class="st1" d="M230.4,702.3c3.2,0,3.2-5,0-5S227.2,702.3,230.4,702.3z"/>
	<path class="st1" d="M591.9,788c3.2,0,3.2-5,0-5S588.7,788,591.9,788z"/>
	<path class="st1" d="M600.1,751.3c3.2,0,3.2-5,0-5S596.9,751.3,600.1,751.3z"/>
	<path class="st1" d="M544.9,718.6c3.2,0,3.2-5,0-5S541.7,718.6,544.9,718.6z"/>
	<path class="st1" d="M824.7,802.3c3.2,0,3.2-5,0-5S821.5,802.3,824.7,802.3z"/>
	<path class="st1" d="M990.2,812.6c3.2,0,3.2-5,0-5S987,812.6,990.2,812.6z"/>
	<path class="st1" d="M912.6,694.1c3.2,0,3.2-5,0-5S909.4,694.1,912.6,694.1z"/>
	<path class="st1" d="M926.9,802.3c3.2,0,3.2-5,0-5S923.7,802.3,926.9,802.3z"/>
	<path class="st1" d="M826.8,737c3.2,0,3.2-5,0-5S823.6,737,826.8,737z"/>
	<path class="st1" d="M1251.6,800.3c3.2,0,3.2-5,0-5S1248.4,800.3,1251.6,800.3z"/>
	<path class="st1" d="M1329.3,818.7c3.2,0,3.2-5,0-5S1326,818.7,1329.3,818.7z"/>
	<path class="st1" d="M1282.3,753.3c3.2,0,3.2-5,0-5S1279.1,753.3,1282.3,753.3z"/>
	<path class="st1" d="M1204.7,688c3.2,0,3.2-5,0-5S1201.4,688,1204.7,688z"/>
	<path class="st1" d="M1406.9,808.5c3.2,0,3.2-5,0-5S1403.7,808.5,1406.9,808.5z"/>
	<path class="st1" d="M1402.8,677.8c3.2,0,3.2-5,0-5S1399.6,677.8,1402.8,677.8z"/>
	
		<linearGradient id="SVGID_00000178200354673596713480000016371638565111093924_" gradientUnits="userSpaceOnUse" x1="665.5704" y1="534.6635" x2="684.4527" y2="-362.7159" gradientTransform="matrix(0.9985 -5.390453e-02 -5.390453e-02 -0.9985 9.7564 1607.5032)">
		<stop  offset="2.000000e-02" style="stop-color:#E4F4FE"/>
		<stop  offset="6.000000e-02" style="stop-color:#C9E7F7"/>
		<stop  offset="0.12" style="stop-color:#9FD2ED"/>
		<stop  offset="0.16" style="stop-color:#8FCAE9"/>
		<stop  offset="0.33" style="stop-color:#8FCAE9"/>
	</linearGradient>
	<path style="fill:url(#SVGID_00000178200354673596713480000016371638565111093924_);" d="M46.8,1462.1
		c24.2-30.3,61.5-77.6,106.2-136.3c175.9-230.9,208.9-301,284.7-308.6c84.5-8.5,111.8,72,187.9,51.1
		c93.2-25.6,112.2-162.9,174.9-157.1c16.9,1.6,34,20.7,68.1,59.1c54.5,61.1,58,89.4,93.2,120.7c21.8,19.4,59.4,43.2,125.3,50.9
		c73.5,105.9,147.1,211.8,220.6,317.8c-53.4,0.8-106.7,1.7-160.1,2.5C780.8,1462.1,413.8,1462.1,46.8,1462.1z"/>
	<path class="st1" d="M1535.6,755.4c3.2,0,3.2-5,0-5S1532.3,755.4,1535.6,755.4z"/>
	<path class="st1" d="M1549.9,696.1c3.2,0,3.2-5,0-5S1546.6,696.1,1549.9,696.1z"/>
	<path class="st1" d="M1607.1,779.9c3.2,0,3.2-5,0-5S1603.8,779.9,1607.1,779.9z"/>
	<path class="st1" d="M1603,716.6c3.2,0,3.2-5,0-5S1599.7,716.6,1603,716.6z"/>
	<path class="st1" d="M1625.4,651.2c3.2,0,3.2-5,0-5S1622.2,651.2,1625.4,651.2z"/>
	<path class="st1" d="M1609.1,612.4c3.2,0,3.2-5,0-5S1605.9,612.4,1609.1,612.4z"/>
	<path class="st1" d="M1680.6,538.8c3.2,0,3.2-5,0-5S1677.4,538.8,1680.6,538.8z"/>
	<path class="st1" d="M1813.4,784c3.2,0,3.2-5,0-5S1810.1,784,1813.4,784z"/>
	<path class="st1" d="M1768.4,608.3c3.2,0,3.2-5,0-5S1765.2,608.3,1768.4,608.3z"/>
	<path class="st1" d="M1719.4,734.9c3.2,0,3.2-5,0-5S1716.2,734.9,1719.4,734.9z"/>
	<path class="st1" d="M1978.8,790.1c3.2,0,3.2-5,0-5S1975.6,790.1,1978.8,790.1z"/>
	<path class="st1" d="M2158.5,739c3.2,0,3.2-5,0-5S2155.3,739,2158.5,739z"/>
	<path class="st1" d="M2017.6,655.3c3.2,0,3.2-5,0-5S2014.4,655.3,2017.6,655.3z"/>
	<path class="st1" d="M2048.2,769.7c3.2,0,3.2-5,0-5S2045,769.7,2048.2,769.7z"/>
	<path class="st1" d="M2105.4,833c3.2,0,3.2-5,0-5S2102.2,833,2105.4,833z"/>
	<path class="st1" d="M2111.6,775.8c3.2,0,3.2-5,0-5S2108.3,775.8,2111.6,775.8z"/>
	<path class="st1" d="M1907.3,649.2c3.2,0,3.2-5,0-5S1904.1,649.2,1907.3,649.2z"/>
	<path class="st1" d="M2183.1,561.3c3.2,0,3.2-5,0-5S2179.8,561.3,2183.1,561.3z"/>
	<path class="st1" d="M2127.9,663.5c3.2,0,3.2-5,0-5S2124.7,663.5,2127.9,663.5z"/>
	<path class="st1" d="M2023.7,540.9c3.2,0,3.2-5,0-5S2020.5,540.9,2023.7,540.9z"/>
	<path class="st1" d="M2158.5,594c3.2,0,3.2-5,0-5S2155.3,594,2158.5,594z"/>
	<path class="st1" d="M2134,504.1c3.2,0,3.2-5,0-5S2130.8,504.1,2134,504.1z"/>
	<path class="st1" d="M2307.6,659.4c3.2,0,3.2-5,0-5S2304.4,659.4,2307.6,659.4z"/>
	<path class="st1" d="M2213.7,587.9c3.2,0,3.2-5,0-5S2210.5,587.9,2213.7,587.9z"/>
	<path class="st1" d="M2311.7,710.4c3.2,0,3.2-5,0-5S2308.5,710.4,2311.7,710.4z"/>
	<path class="st1" d="M2405.7,698.2c3.2,0,3.2-5,0-5S2402.5,698.2,2405.7,698.2z"/>
	<path class="st1" d="M2362.8,585.8c3.2,0,3.2-5,0-5S2359.6,585.8,2362.8,585.8z"/>
	<path class="st1" d="M2201.4,477.6c3.2,0,3.2-5,0-5S2198.2,477.6,2201.4,477.6z"/>
	<path class="st1" d="M2385.3,481.7c3.2,0,3.2-5,0-5S2382,481.7,2385.3,481.7z"/>
	<path class="st1" d="M2299.5,516.4c3.2,0,3.2-5,0-5S2296.3,516.4,2299.5,516.4z"/>
	<path class="st1" d="M1984.9,440.8c3.2,0,3.2-5,0-5S1981.7,440.8,1984.9,440.8z"/>
	<path class="st1" d="M1825.6,469.4c3.2,0,3.2-5,0-5S1822.4,469.4,1825.6,469.4z"/>
	<path class="st1" d="M1686.7,359.1c3.2,0,3.2-5,0-5S1683.5,359.1,1686.7,359.1z"/>
	<path class="st1" d="M1553.9,514.3c3.2,0,3.2-5,0-5S1550.7,514.3,1553.9,514.3z"/>
	<path class="st1" d="M1382.4,500c3.2,0,3.2-5,0-5S1379.2,500,1382.4,500z"/>
	<path class="st1" d="M1474.3,363.2c3.2,0,3.2-5,0-5S1471.1,363.2,1474.3,363.2z"/>
	<path class="st1" d="M1329.3,254.9c3.2,0,3.2-5,0-5S1326,254.9,1329.3,254.9z"/>
	<path class="st1" d="M1553.9,173.2c3.2,0,3.2-5,0-5S1550.7,173.2,1553.9,173.2z"/>
	<path class="st1" d="M1584.6,355c3.2,0,3.2-5,0-5S1581.4,355,1584.6,355z"/>
	<path class="st1" d="M1880.7,308c3.2,0,3.2-5,0-5S1877.5,308,1880.7,308z"/>
	<path class="st1" d="M1762.3,175.3c3.2,0,3.2-5,0-5S1759.1,175.3,1762.3,175.3z"/>
	<path class="st1" d="M1790.9,342.8c3.2,0,3.2-5,0-5S1787.7,342.8,1790.9,342.8z"/>
	<path class="st1" d="M1958.4,406.1c3.2,0,3.2-5,0-5S1955.2,406.1,1958.4,406.1z"/>
	<path class="st1" d="M2101.4,297.8c3.2,0,3.2-5,0-5S2098.1,297.8,2101.4,297.8z"/>
	<path class="st1" d="M1905.3,203.9c3.2,0,3.2-5,0-5S1902,203.9,1905.3,203.9z"/>
	<path class="st1" d="M2095.2,389.8c3.2,0,3.2-5,0-5S2092,389.8,2095.2,389.8z"/>
	<path class="st1" d="M2309.7,322.3c3.2,0,3.2-5,0-5S2306.5,322.3,2309.7,322.3z"/>
	<path class="st1" d="M2144.2,191.6c3.2,0,3.2-5,0-5S2141,191.6,2144.2,191.6z"/>
	<path class="st1" d="M2297.4,116c3.2,0,3.2-5,0-5S2294.2,116,2297.4,116z"/>
	<path class="st1" d="M2215.7,244.7c3.2,0,3.2-5,0-5S2212.5,244.7,2215.7,244.7z"/>
	<path class="st1" d="M2485.4,363.2c3.2,0,3.2-5,0-5S2482.1,363.2,2485.4,363.2z"/>
	<path class="st1" d="M2485.4,226.3c3.2,0,3.2-5,0-5S2482.1,226.3,2485.4,226.3z"/>
	<path class="st1" d="M2389.4,146.7c3.2,0,3.2-5,0-5S2386.1,146.7,2389.4,146.7z"/>
	<path class="st1" d="M2401.6,293.8c3.2,0,3.2-5,0-5S2398.4,293.8,2401.6,293.8z"/>
	<path class="st1" d="M2579.3,471.5c3.2,0,3.2-5,0-5S2576.1,471.5,2579.3,471.5z"/>
	<path class="st1" d="M2640.6,638.9c3.2,0,3.2-5,0-5S2637.4,638.9,2640.6,638.9z"/>
	<path class="st1" d="M2518,545c3.2,0,3.2-5,0-5S2514.8,545,2518,545z"/>
	<path class="st1" d="M2597.7,696.1c3.2,0,3.2-5,0-5S2594.5,696.1,2597.7,696.1z"/>
	<path class="st1" d="M2605.9,314.2c3.2,0,3.2-5,0-5S2602.6,314.2,2605.9,314.2z"/>
	<path class="st1" d="M2636.5,195.7c3.2,0,3.2-5,0-5S2633.3,195.7,2636.5,195.7z"/>
	<path class="st1" d="M2538.5,89.5c3.2,0,3.2-5,0-5S2535.2,89.5,2538.5,89.5z"/>
	<path class="st1" d="M2630.4,44.6c3.2,0,3.2-5,0-5S2627.2,44.6,2630.4,44.6z"/>
	<path class="st1" d="M2287.2,24.1c3.2,0,3.2-5,0-5S2284,24.1,2287.2,24.1z"/>
	<path class="st1" d="M2007.4,77.2c3.2,0,3.2-5,0-5S2004.2,77.2,2007.4,77.2z"/>
	<path class="st1" d="M1831.7-2.4c3.2,0,3.2-5,0-5S1828.5-2.4,1831.7-2.4z"/>
	<path class="st1" d="M1654,99.7c3.2,0,3.2-5,0-5S1650.8,99.7,1654,99.7z"/>
	<path class="st1" d="M1429.4,16c3.2,0,3.2-5,0-5S1426.1,16,1429.4,16z"/>
	<path class="st1" d="M1033.1,22.1c3.2,0,3.2-5,0-5S1029.9,22.1,1033.1,22.1z"/>
	<path class="st1" d="M1112.7,165.1c3.2,0,3.2-5,0-5S1109.5,165.1,1112.7,165.1z"/>
	<path class="st1" d="M865.6,134.4c3.2,0,3.2-5,0-5S862.4,134.4,865.6,134.4z"/>
	<path class="st1" d="M608.2,50.7c3.2,0,3.2-5,0-5S605,50.7,608.2,50.7z"/>
	<path class="st1" d="M357,71.1c3.2,0,3.2-5,0-5S353.8,71.1,357,71.1z"/>
	<path class="st1" d="M395.8,205.9c3.2,0,3.2-5,0-5S392.6,205.9,395.8,205.9z"/>
	<path class="st1" d="M538.8,150.8c3.2,0,3.2-5,0-5S535.6,150.8,538.8,150.8z"/>
	<path class="st1" d="M504.1,267.2h4.1c0.7,0,1.3-0.3,1.8-0.7c0.5-0.5,0.7-1.1,0.7-1.8c0-0.7-0.3-1.3-0.7-1.8
		c-0.5-0.5-1.1-0.7-1.8-0.7h-4.1c-0.7,0-1.3,0.3-1.8,0.7c-0.5,0.5-0.7,1.1-0.7,1.8c0,0.7,0.3,1.3,0.7,1.8
		C502.8,266.9,503.4,267.2,504.1,267.2z"/>
	<path class="st1" d="M869.7,254.9c3.2,0,3.2-5,0-5S866.5,254.9,869.7,254.9z"/>
	<path class="st1" d="M1051.5,318.3c3.2,0,3.2-5,0-5S1048.3,318.3,1051.5,318.3z"/>
	<path class="st1" d="M835,50.7c3.2,0,3.2-5,0-5S831.7,50.7,835,50.7z"/>
</g>
</svg>
