<?xml version="1.0" encoding="utf-8"?>
<!-- Generator: Adobe Illustrator 25.4.2, SVG Export Plug-In . SVG Version: 6.00 Build 0)  -->
<svg version="1.1" id="Calque_1" xmlns="http://www.w3.org/2000/svg" xmlns:xlink="http://www.w3.org/1999/xlink" x="0px" y="0px"
	 viewBox="0 0 2659.3 1466" style="enable-background:new 0 0 2659.3 1466;" xml:space="preserve">
<style type="text/css">
	.st0{fill:url(#SVGID_1_);}
	.st1{fill:#FFFFFF;}
	.st2{fill:url(#SVGID_00000151513945019839700440000011211182924299591327_);}
	.st3{fill:url(#SVGID_00000109024198859552915500000012328631412884826797_);}
	.st4{fill:url(#SVGID_00000062906491613769330160000011164864865415224506_);}
	.st5{fill:url(#SVGID_00000006689524322295737110000008102596215003005108_);}
	.st6{fill:url(#SVGID_00000066475273224070539360000017481183718390437776_);}
</style>
<g id="Calque_1_00000103224524709847825600000010027560095028638128_">
	
		<linearGradient id="SVGID_1_" gradientUnits="userSpaceOnUse" x1="1327.66" y1="1467.4589" x2="1331.62" y2="-5.6592" gradientTransform="matrix(1 0 0 -1 0 1463.8899)">
		<stop  offset="0" style="stop-color:#1A3139"/>
		<stop  offset="0.1816" style="stop-color:#1F3740"/>
		<stop  offset="0.4047" style="stop-color:#192F37"/>
		<stop  offset="0.51" style="stop-color:#26414C"/>
		<stop  offset="0.8024" style="stop-color:#517C91"/>
		<stop  offset="0.8764" style="stop-color:#78C6EE"/>
		<stop  offset="0.9586" style="stop-color:#90D2F5"/>
	</linearGradient>
	<rect y="0" class="st0" width="2659.3" height="1466"/>
</g>
<g id="montagne">
	<path class="st1" d="M485.1,1103c-14.6,3.9-45.6,14-39.8,21.4c6.5,8.4,58.5,11.5,98.8,9c40.8-2.6,39.8-9,77.4-11.8
		c60.7-4.6,92.4,10.1,126.4,2c17-4,29.2-12.5,23.7-18.3c-6.2-6.6-44.3-8.1-120.2-11c-50.4-1.9-93-2.5-134.8,2.8
		C506,1098.3,495.5,1100.3,485.1,1103z"/>
	<path class="st1" d="M85.9,1036.3c62.6,5.8,73,1.7,120.6,6.5c59.6,6,85.9,16.7,108.9,12.3c5.3-1,7.2-2.2,16.9-8.9
		c24.1-16.4,36.1-24.7,34.9-25.9c-16.1-16.7-344.9-3.5-344.7,7.2C22.5,1030.4,48,1032.8,85.9,1036.3z"/>
	
		<linearGradient id="SVGID_00000070108117295308332310000016432650602144043198_" gradientUnits="userSpaceOnUse" x1="2338.4111" y1="830.1235" x2="2355.6812" y2="9.7035" gradientTransform="matrix(1 0 0 -1 0 1463.8899)">
		<stop  offset="2.000000e-02" style="stop-color:#E4F4FE"/>
		<stop  offset="6.000000e-02" style="stop-color:#C9E7F7"/>
		<stop  offset="0.12" style="stop-color:#9FD2ED"/>
		<stop  offset="0.16" style="stop-color:#8FCAE9"/>
		<stop  offset="0.33" style="stop-color:#8FCAE9"/>
	</linearGradient>
	<path style="fill:url(#SVGID_00000070108117295308332310000016432650602144043198_);" d="M2093.1,1056.1
		c14.3-172.7,49.8-294.9,78.6-372.8c5-13.7,35.4-94,64.6-91.1c31.4,3.2,33,99.8,89.3,115.5c20.8,5.8,39.8-2,44.2-4
		c68.8-30.8,50.3-171.1,83.8-177.7c27.1-5.3,65.4,81.9,71.5,96c89.3,206.7,74.6,436.1,74.6,436.1l0,0L2093.1,1056.1z"/>
	
		<linearGradient id="SVGID_00000132079594720713252300000007577550227389463225_" gradientUnits="userSpaceOnUse" x1="1413.7096" y1="699.8384" x2="1428.4896" y2="-2.0816" gradientTransform="matrix(0.9985 -5.390453e-02 -5.390453e-02 -0.9985 9.7564 1607.5032)">
		<stop  offset="2.000000e-02" style="stop-color:#E4F4FE"/>
		<stop  offset="6.000000e-02" style="stop-color:#C9E7F7"/>
		<stop  offset="0.12" style="stop-color:#9FD2ED"/>
		<stop  offset="0.16" style="stop-color:#8FCAE9"/>
		<stop  offset="0.33" style="stop-color:#8FCAE9"/>
	</linearGradient>
	<path style="fill:url(#SVGID_00000132079594720713252300000007577550227389463225_);" d="M1063.2,1183.1
		c-4.1-109.1,24.5-187.1,44.9-230.3c20.7-43.8,54.1-114.5,108.3-120.5c39.7-4.4,51.1,30.4,89.9,26.5
		c70.3-6.9,92.7-127.2,136.8-120.5c18.8,2.8,32.9,27.8,61.3,77.6c8.2,14.3,15.6,29.1,22.1,44.3c47.5,111.9,227.9,311.2,229.6,313.2
		l0,0L1063.2,1183.1z"/>
	<path class="st1" d="M2014.5,1149c12.7-0.1,74-0.6,138.9,23.2c35.4,13,93,41,85.8,58.9c-9,22.6-118.1,21.2-189.9,13.2
		c-66.6-7.3-114.2-21.7-120.5-23.6c-130.2-38.8-303.9-20.4-500.4-14.7c-310.5,8.9-660.3-14.6-663.8-48.6c-0.2-2.3,1.1-5.6,14.3-13.2
		c76.7-44.2,195.7-28.6,222.7-25.1c105.2,13.4,221.8,17.3,454.9,25.3C1576.8,1148.4,1871.2,1150.1,2014.5,1149z"/>
	
		<linearGradient id="SVGID_00000070811106878833563960000012053666319114976653_" gradientUnits="userSpaceOnUse" x1="229.3251" y1="655.1947" x2="245.7351" y2="-124.1653" gradientTransform="matrix(1 0 0 -1 0 1463.8899)">
		<stop  offset="2.000000e-02" style="stop-color:#E4F4FE"/>
		<stop  offset="6.000000e-02" style="stop-color:#C9E7F7"/>
		<stop  offset="0.12" style="stop-color:#9FD2ED"/>
		<stop  offset="0.16" style="stop-color:#8FCAE9"/>
		<stop  offset="0.33" style="stop-color:#8FCAE9"/>
	</linearGradient>
	<path style="fill:url(#SVGID_00000070811106878833563960000012053666319114976653_);" d="M-15.5,1209.5
		c29.9-226.4,89.7-356.6,132.2-428c13.6-22.9,50.5-83.1,68.7-70.2c25.6,18.3,15.8,145.8,31.7,149.8c7.8,2,12.1-28.3,37.3-75.4
		c16.5-30.9,24.8-46.4,34.2-49c27-7.5,61.6,87.1,86.3,154.5c47.5,129.8,86.9,238.6,116.2,320.2L-15.5,1209.5z"/>
	<path class="st1" d="M255.8,424.4c3.2,0,3.2-5,0-5C252.6,419.4,252.6,424.4,255.8,424.4z"/>
	<path class="st1" d="M421.3,495.9c3.2,0,3.2-5,0-5S418,495.9,421.3,495.9z"/>
	<path class="st1" d="M453.9,385.6c3.2,0,3.2-5,0-5S450.7,385.6,453.9,385.6z"/>
	<path class="st1" d="M235.4,585.7c3.2,0,3.2-5,0-5S232.1,585.7,235.4,585.7z"/>
	<path class="st1" d="M500.9,769.6c3.2,0,3.2-5,0-5S497.7,769.6,500.9,769.6z"/>
	<path class="st1" d="M750.1,610.3c3.2,0,3.2-5,0-5S746.9,610.3,750.1,610.3z"/>
	<path class="st1" d="M504.2,1349.1c92.7-24.5,143.2-18.4,155.5-16.7c21.2,2.9,53.4,7.7,68.9,26.1c0.9,1.1,17.5,21.3,5.4,35.5
		c-16.6,19.5-71.4,8.7-210.6,5.2c-86.7-2.1-122,0.7-124.9-7.3C393.7,1378.3,490.3,1352.7,504.2,1349.1z"/>
	<path class="st1" d="M623.5,473.4c3.2,0,3.2-5,0-5S620.2,473.4,623.5,473.4z"/>
	<path class="st1" d="M502.9,600c3.2,0,3.2-5,0-5S499.7,600,502.9,600z"/>
	<path class="st1" d="M1062.6,732.8c3.2,0,3.2-5,0-5S1059.4,732.8,1062.6,732.8z"/>
	<path class="st1" d="M1115.4,1269.7c56-36.4,116.2,24.8,241,26.6c55.1,0.8,49.6-11.1,175.7-36.8c77.7-15.8,218.7-39.7,377.9-18.4
		c59.7,8,100.7,19.5,126.2,54.2c21.4,29,31,73.2,15.1,108.8c-25.7,57.4-106.4,66-143.4,69.9c-82.8,8.8-104.7-21.4-200.2-32.7
		c-33.2-3.9-101.6,4.1-236.9,20.4c-155.7,18.8-184.6,25.5-241,14.3c-44.7-8.8-137.3-27.2-156-90.6
		C1062.4,1346.8,1078.9,1293.5,1115.4,1269.7z"/>
	<path class="st1" d="M1054.4,404c3.2,0,3.2-5,0-5S1051.2,404,1054.4,404z"/>
	<path class="st1" d="M1160.6,512.2c3.2,0,3.2-5,0-5S1157.4,512.2,1160.6,512.2z"/>
	<path class="st1" d="M1238.3,426.4c3.2,0,3.2-5,0-5S1235,426.4,1238.3,426.4z"/>
	<g id="Calque_3">
		<path class="st1" d="M284.8,668.2c3.2,0,3.2-5,0-5S281.6,668.2,284.8,668.2z"/>
		<path class="st1" d="M618.9,1212.1c32.6-4.1,38.1-0.7,67.5-3.2c21.1-1.8,73.6-6.3,79.7-21.8c4.8-12.2-21-26.4-37-32.7
			c-25.6-10-52-9.2-83.5-8.3c-25.1,0.7-51.8,1.5-80.7,10.7c-31.3,9.9-26.6,17.5-67.4,34.9c-35.9,15.3-59.8,18.1-58.9,25.4
			c1,7.8,28.8,12.5,38.9,14.2c14.9,2.5,30.1,3,45.1,1.4c17.4-2,20.8-5.4,45-11.4C584.5,1217.3,601.6,1214.2,618.9,1212.1z"/>
		<path class="st1" d="M397.2,1102.8c-2.9-6.8,16.7-18.4,32.4-24c8.8-3.2,33.5-11.9,56-2.1c9.3,4.1,23.6,13.7,21,21.3
			c-4.6,13.3-57.6,11.6-76.2,11C413.1,1108.4,399.3,1107.9,397.2,1102.8z"/>
		<path class="st1" d="M94.1,1326.5c30.7-23.3,46-34.9,68.9-38.3c37.4-5.5,67,12.8,79.7,20.7c5,3.1,52,32.7,46,52.8
			c-2.2,7.4-12.2,15.3-91.1,19.9c-76.9,4.5-142.9,8.4-147.8-10C47.1,1362.1,62.8,1350.2,94.1,1326.5z"/>
		<path class="st1" d="M35.1,1190.1c46.1-6.8,49.4-19.4,80.4-24c50.3-7.4,57,23.3,137.9,27.7c12.3,0.7,33,1.1,63.6,4.9
			c49.2,6.2,55.3,12.7,57.5,16.6c6.5,11.7-5.5,30.9-23,40c-7,3.6-20.6,8.6-98-3.7c-41.4-6.6-50.6-10.1-76.6-10.4
			c-23.8-0.3-41-0.6-59,7.4c-21.5,9.4-19.2,19.6-46.7,35.7c-15.9,9.3-31.2,18.3-49.8,16c-22.5-2.8-35.1-20.3-39.1-25.8
			c-3-4.2-14.5-20.7-8.4-41.8c0.8-2.8,6.4-20.9,26.8-32.6C13.2,1192.8,25.3,1191.6,35.1,1190.1z"/>
	</g>
	<path class="st1" d="M1125.9,344.7c3.2,0,3.2-5,0-5S1122.7,344.7,1125.9,344.7z"/>
	
		<linearGradient id="SVGID_00000064333991993126620530000014925134218781935235_" gradientUnits="userSpaceOnUse" x1="2099.0564" y1="509.1124" x2="2117.6467" y2="-374.3776" gradientTransform="matrix(0.9985 -5.390453e-02 -5.390453e-02 -0.9985 9.7564 1607.5032)">
		<stop  offset="2.000000e-02" style="stop-color:#E4F4FE"/>
		<stop  offset="6.000000e-02" style="stop-color:#C9E7F7"/>
		<stop  offset="0.12" style="stop-color:#9FD2ED"/>
		<stop  offset="0.16" style="stop-color:#8FCAE9"/>
		<stop  offset="0.33" style="stop-color:#8FCAE9"/>
	</linearGradient>
	<path style="fill:url(#SVGID_00000064333991993126620530000014925134218781935235_);" d="M1542.6,1407.9
		c25.8-33.1,67.2-86.2,106.2-136.3c233.7-300.1,306.2-395,384-382c58.1,9.8,71.7,71.8,128.7,65.4c70.1-7.9,96.2-107.1,134.8-98
		c38.3,9,20.1,108.7,91.9,157.3c26.4,17.9,52.9,20.7,69.4,22.5c99,10.6,173.7-66.7,185.9-79.7c-1.4,68.1-2.7,136.2-4.1,204.2
		c1.3,82.2,2.7,164.4,4.1,246.6L1542.6,1407.9L1542.6,1407.9z"/>
	<path class="st1" d="M1177,250.8c3.2,0,3.2-5,0-5S1173.8,250.8,1177,250.8z"/>
	<path class="st1" d="M1142.3,140.5c3.2,0,3.2-5,0-5S1139,140.5,1142.3,140.5z"/>
	<path class="st1" d="M1262.8,62.9c3.2,0,3.2-5,0-5S1259.6,62.9,1262.8,62.9z"/>
	<path class="st1" d="M813.4,342.7c3.2,0,3.2-5,0-5S810.2,342.7,813.4,342.7z"/>
	<path class="st1" d="M611.2,175.2c3.2,0,3.2-5,0-5S608,175.2,611.2,175.2z"/>
	<path class="st1" d="M662.3,334.5c3.2,0,3.2-5,0-5S659,334.5,662.3,334.5z"/>
	<path class="st1" d="M746,289.6c3.2,0,3.2-5,0-5S742.8,289.6,746,289.6z"/>
	<path class="st1" d="M400.8,361.1c3.2,0,3.2-5,0-5S397.6,361.1,400.8,361.1z"/>
	<path class="st1" d="M425.3,334.5c3.2,0,3.2-5,0-5S422.1,334.5,425.3,334.5z"/>
	<path class="st1" d="M127.1,62.9c3.2,0,3.2-5,0-5S123.9,62.9,127.1,62.9z"/>
	<path class="st1" d="M188.4,265.1c3.2,0,3.2-5,0-5S185.2,265.1,188.4,265.1z"/>
	<path class="st1" d="M249.7,154.8c3.2,0,3.2-5,0-5S246.4,154.8,249.7,154.8z"/>
	<path class="st1" d="M147.5,156.8c3.2,0,3.2-5,0-5S144.3,156.8,147.5,156.8z"/>
	<path class="st1" d="M219,203.8c3.2,0,3.2-5,0-5S215.8,203.8,219,203.8z"/>
	<path class="st1" d="M114.9,289.6c3.2,0,3.2-5,0-5S111.6,289.6,114.9,289.6z"/>
	<path class="st1" d="M118.9,557.2c3.2,0,3.2-5,0-5S115.7,557.2,118.9,557.2z"/>
	<path class="st1" d="M98.5,675.6c3.2,0,3.2-5,0-5S95.3,675.6,98.5,675.6z"/>
	<path class="st1" d="M35.2,579.6c3.2,0,3.2-5,0-5S32,579.6,35.2,579.6z"/>
	<path class="st1" d="M121,767.5c3.2,0,3.2-5,0-5S117.8,767.5,121,767.5z"/>
	<path class="st1" d="M257.8,783.9c3.2,0,3.2-5,0-5C254.6,778.9,254.6,783.9,257.8,783.9z"/>
	<path class="st1" d="M212.9,661.3c3.2,0,3.2-5,0-5S209.7,661.3,212.9,661.3z"/>
	<path class="st1" d="M574.4,747.1c3.2,0,3.2-5,0-5S571.2,747.1,574.4,747.1z"/>
	<path class="st1" d="M582.6,710.3c3.2,0,3.2-5,0-5S579.4,710.3,582.6,710.3z"/>
	<path class="st1" d="M527.5,677.7c3.2,0,3.2-5,0-5S524.2,677.7,527.5,677.7z"/>
	<path class="st1" d="M807.3,761.4c3.2,0,3.2-5,0-5S804,761.4,807.3,761.4z"/>
	<path class="st1" d="M972.7,771.6c3.2,0,3.2-5,0-5S969.5,771.6,972.7,771.6z"/>
	<path class="st1" d="M895.1,653.2c3.2,0,3.2-5,0-5S891.9,653.2,895.1,653.2z"/>
	<path class="st1" d="M909.4,761.4c3.2,0,3.2-5,0-5S906.2,761.4,909.4,761.4z"/>
	<path class="st1" d="M809.3,696c3.2,0,3.2-5,0-5S806.1,696,809.3,696z"/>
	<path class="st1" d="M1234.2,759.4c3.2,0,3.2-5,0-5S1231,759.4,1234.2,759.4z"/>
	<path class="st1" d="M1311.8,777.7c3.2,0,3.2-5,0-5S1308.6,777.7,1311.8,777.7z"/>
	<path class="st1" d="M1264.8,712.4c3.2,0,3.2-5,0-5S1261.6,712.4,1264.8,712.4z"/>
	<path class="st1" d="M1187.2,647c3.2,0,3.2-5,0-5S1184,647,1187.2,647z"/>
	<path class="st1" d="M1389.4,767.5c3.2,0,3.2-5,0-5S1386.2,767.5,1389.4,767.5z"/>
	<path class="st1" d="M1385.3,636.8c3.2,0,3.2-5,0-5S1382.1,636.8,1385.3,636.8z"/>
	
		<linearGradient id="SVGID_00000025411376289199295960000016650792002591792776_" gradientUnits="userSpaceOnUse" x1="650.3316" y1="576.4818" x2="669.214" y2="-320.8976" gradientTransform="matrix(0.9985 -5.390453e-02 -5.390453e-02 -0.9985 9.7564 1607.5032)">
		<stop  offset="2.000000e-02" style="stop-color:#E4F4FE"/>
		<stop  offset="6.000000e-02" style="stop-color:#C9E7F7"/>
		<stop  offset="0.12" style="stop-color:#9FD2ED"/>
		<stop  offset="0.16" style="stop-color:#8FCAE9"/>
		<stop  offset="0.33" style="stop-color:#8FCAE9"/>
	</linearGradient>
	<path style="fill:url(#SVGID_00000025411376289199295960000016650792002591792776_);" d="M29.4,1421.2
		c24.2-30.3,61.5-77.6,106.2-136.3c175.9-230.9,208.9-301,284.7-308.6c84.5-8.5,111.8,72,187.9,51.1
		c93.2-25.6,112.2-162.9,174.9-157.1c16.9,1.6,34,20.7,68.1,59.1c54.5,61.1,58,89.4,93.2,120.7c21.8,19.4,59.4,43.2,125.3,50.9
		c73.5,105.9,147.1,211.8,220.6,317.8c-53.4,0.8-106.7,1.7-160.1,2.5C763.3,1421.2,396.3,1421.2,29.4,1421.2z"/>
	<path class="st1" d="M1518.1,714.4c3.2,0,3.2-5,0-5S1514.9,714.4,1518.1,714.4z"/>
	<path class="st1" d="M1532.4,655.2c3.2,0,3.2-5,0-5S1529.2,655.2,1532.4,655.2z"/>
	<path class="st1" d="M1589.6,738.9c3.2,0,3.2-5,0-5S1586.4,738.9,1589.6,738.9z"/>
	<path class="st1" d="M1585.5,675.6c3.2,0,3.2-5,0-5S1582.3,675.6,1585.5,675.6z"/>
	<path class="st1" d="M1608,610.3c3.2,0,3.2-5,0-5S1604.7,610.3,1608,610.3z"/>
	<path class="st1" d="M1591.6,571.4c3.2,0,3.2-5,0-5S1588.4,571.4,1591.6,571.4z"/>
	<path class="st1" d="M1663.1,497.9c3.2,0,3.2-5,0-5S1659.9,497.9,1663.1,497.9z"/>
	<path class="st1" d="M1795.9,743c3.2,0,3.2-5,0-5S1792.7,743,1795.9,743z"/>
	<path class="st1" d="M1750.9,567.4c3.2,0,3.2-5,0-5S1747.7,567.4,1750.9,567.4z"/>
	<path class="st1" d="M1701.9,694c3.2,0,3.2-5,0-5S1698.7,694,1701.9,694z"/>
	<path class="st1" d="M1961.3,749.2c3.2,0,3.2-5,0-5S1958.1,749.2,1961.3,749.2z"/>
	<path class="st1" d="M2141.1,698.1c3.2,0,3.2-5,0-5S2137.9,698.1,2141.1,698.1z"/>
	<path class="st1" d="M2000.1,614.3c3.2,0,3.2-5,0-5S1996.9,614.3,2000.1,614.3z"/>
	<path class="st1" d="M2030.8,728.7c3.2,0,3.2-5,0-5S2027.6,728.7,2030.8,728.7z"/>
	<path class="st1" d="M2088,792c3.2,0,3.2-5,0-5S2084.7,792,2088,792z"/>
	<path class="st1" d="M2094.1,734.9c3.2,0,3.2-5,0-5S2090.9,734.9,2094.1,734.9z"/>
	<path class="st1" d="M1889.8,608.2c3.2,0,3.2-5,0-5S1886.6,608.2,1889.8,608.2z"/>
	<path class="st1" d="M2165.6,520.4c3.2,0,3.2-5,0-5S2162.4,520.4,2165.6,520.4z"/>
	<path class="st1" d="M2110.4,622.5c3.2,0,3.2-5,0-5S2107.2,622.5,2110.4,622.5z"/>
	<path class="st1" d="M2006.3,500c3.2,0,3.2-5,0-5S2003,500,2006.3,500z"/>
	<path class="st1" d="M2141.1,553.1c3.2,0,3.2-5,0-5S2137.9,553.1,2141.1,553.1z"/>
	<path class="st1" d="M2116.6,463.2c3.2,0,3.2-5,0-5S2113.3,463.2,2116.6,463.2z"/>
	<path class="st1" d="M2290.2,618.4c3.2,0,3.2-5,0-5S2287,618.4,2290.2,618.4z"/>
	<path class="st1" d="M2196.3,546.9c3.2,0,3.2-5,0-5S2193,546.9,2196.3,546.9z"/>
	<path class="st1" d="M2294.3,669.5c3.2,0,3.2-5,0-5S2291,669.5,2294.3,669.5z"/>
	<path class="st1" d="M2388.3,657.2c3.2,0,3.2-5,0-5S2385,657.2,2388.3,657.2z"/>
	<path class="st1" d="M2345.3,544.9c3.2,0,3.2-5,0-5S2342.1,544.9,2345.3,544.9z"/>
	<path class="st1" d="M2184,436.6c3.2,0,3.2-5,0-5S2180.7,436.6,2184,436.6z"/>
	<path class="st1" d="M2367.8,440.7c3.2,0,3.2-5,0-5S2364.6,440.7,2367.8,440.7z"/>
	<path class="st1" d="M2282,475.4c3.2,0,3.2-5,0-5S2278.8,475.4,2282,475.4z"/>
	<path class="st1" d="M1967.5,399.9c3.2,0,3.2-5,0-5S1964.2,399.9,1967.5,399.9z"/>
	<path class="st1" d="M1808.1,428.5c3.2,0,3.2-5,0-5S1804.9,428.5,1808.1,428.5z"/>
	<path class="st1" d="M1669.3,318.2c3.2,0,3.2-5,0-5S1666,318.2,1669.3,318.2z"/>
	<path class="st1" d="M1536.5,473.4c3.2,0,3.2-5,0-5S1533.3,473.4,1536.5,473.4z"/>
	<path class="st1" d="M1364.9,459.1c3.2,0,3.2-5,0-5S1361.7,459.1,1364.9,459.1z"/>
	<path class="st1" d="M1456.8,322.3c3.2,0,3.2-5,0-5S1453.6,322.3,1456.8,322.3z"/>
	<path class="st1" d="M1311.8,214c3.2,0,3.2-5,0-5S1308.6,214,1311.8,214z"/>
	<path class="st1" d="M1536.5,132.3c3.2,0,3.2-5,0-5S1533.3,132.3,1536.5,132.3z"/>
	<path class="st1" d="M1567.1,314.1c3.2,0,3.2-5,0-5S1563.9,314.1,1567.1,314.1z"/>
	<path class="st1" d="M1863.3,267.1c3.2,0,3.2-5,0-5S1860,267.1,1863.3,267.1z"/>
	<path class="st1" d="M1744.8,134.3c3.2,0,3.2-5,0-5S1741.6,134.3,1744.8,134.3z"/>
	<path class="st1" d="M1773.4,301.9c3.2,0,3.2-5,0-5S1770.2,301.9,1773.4,301.9z"/>
	<path class="st1" d="M1940.9,365.2c3.2,0,3.2-5,0-5S1937.7,365.2,1940.9,365.2z"/>
	<path class="st1" d="M2083.9,256.9c3.2,0,3.2-5,0-5S2080.7,256.9,2083.9,256.9z"/>
	<path class="st1" d="M1887.8,162.9c3.2,0,3.2-5,0-5S1884.6,162.9,1887.8,162.9z"/>
	<path class="st1" d="M2077.8,348.8c3.2,0,3.2-5,0-5S2074.5,348.8,2077.8,348.8z"/>
	<path class="st1" d="M2292.3,281.4c3.2,0,3.2-5,0-5S2289,281.4,2292.3,281.4z"/>
	<path class="st1" d="M2126.8,150.7c3.2,0,3.2-5,0-5S2123.6,150.7,2126.8,150.7z"/>
	<path class="st1" d="M2280,75.1c3.2,0,3.2-5,0-5S2276.7,75.1,2280,75.1z"/>
	<path class="st1" d="M2198.3,203.8c3.2,0,3.2-5,0-5S2195,203.8,2198.3,203.8z"/>
	<path class="st1" d="M2467.9,322.3c3.2,0,3.2-5,0-5S2464.7,322.3,2467.9,322.3z"/>
	<path class="st1" d="M2467.9,185.4c3.2,0,3.2-5,0-5S2464.7,185.4,2467.9,185.4z"/>
	<path class="st1" d="M2371.9,105.7c3.2,0,3.2-5,0-5S2368.7,105.7,2371.9,105.7z"/>
	<path class="st1" d="M2384.1,252.8c3.2,0,3.2-5,0-5S2380.9,252.8,2384.1,252.8z"/>
	<path class="st1" d="M2561.8,430.5c3.2,0,3.2-5,0-5S2558.6,430.5,2561.8,430.5z"/>
	<path class="st1" d="M2623.1,598c3.2,0,3.2-5,0-5S2619.9,598,2623.1,598z"/>
	<path class="st1" d="M2500.6,504c3.2,0,3.2-5,0-5S2497.3,504,2500.6,504z"/>
	<path class="st1" d="M2580.3,655.2c3.2,0,3.2-5,0-5S2577,655.2,2580.3,655.2z"/>
	<path class="st1" d="M2588.4,273.2c3.2,0,3.2-5,0-5S2585.2,273.2,2588.4,273.2z"/>
	<path class="st1" d="M2619,154.8c3.2,0,3.2-5,0-5S2615.8,154.8,2619,154.8z"/>
	<path class="st1" d="M2521,48.6c3.2,0,3.2-5,0-5S2517.8,48.6,2521,48.6z"/>
	<path class="st1" d="M2612.9,3.6c3.2,0,3.2-5,0-5S2609.7,3.6,2612.9,3.6z"/>
	<path class="st1" d="M2269.8-16.8c3.2,0,3.2-5,0-5S2266.5-16.8,2269.8-16.8z"/>
	<path class="st1" d="M1989.9,36.3c3.2,0,3.2-5,0-5S1986.7,36.3,1989.9,36.3z"/>
	<path class="st1" d="M1814.3-43.4c3.2,0,3.2-5,0-5S1811-43.4,1814.3-43.4z"/>
	<path class="st1" d="M1636.6,58.8c3.2,0,3.2-5,0-5S1633.3,58.8,1636.6,58.8z"/>
	<path class="st1" d="M1411.9-25c3.2,0,3.2-5,0-5S1408.7-25,1411.9-25z"/>
	<path class="st1" d="M1015.6-18.8c3.2,0,3.2-5,0-5S1012.4-18.8,1015.6-18.8z"/>
	<path class="st1" d="M1095.3,124.1c3.2,0,3.2-5,0-5S1092,124.1,1095.3,124.1z"/>
	<path class="st1" d="M848.1,93.5c3.2,0,3.2-5,0-5S844.9,93.5,848.1,93.5z"/>
	<path class="st1" d="M590.8,9.7c3.2,0,3.2-5,0-5S587.6,9.7,590.8,9.7z"/>
	<path class="st1" d="M339.5,30.2c3.2,0,3.2-5,0-5S336.3,30.2,339.5,30.2z"/>
	<path class="st1" d="M378.4,165c3.2,0,3.2-5,0-5S375.1,165,378.4,165z"/>
	<path class="st1" d="M521.3,109.9c3.2,0,3.2-5,0-5S518.1,109.9,521.3,109.9z"/>
	<path class="st1" d="M486.6,226.3h4.1c0.7,0,1.3-0.3,1.8-0.7c0.5-0.5,0.7-1.1,0.7-1.8c0-0.7-0.3-1.3-0.7-1.8
		c-0.5-0.5-1.1-0.7-1.8-0.7h-4.1c-0.7,0-1.3,0.3-1.8,0.7c-0.5,0.5-0.7,1.1-0.7,1.8c0,0.7,0.3,1.3,0.7,1.8
		C485.3,226,485.9,226.2,486.6,226.3z"/>
	<path class="st1" d="M852.3,214c3.2,0,3.2-5,0-5S849,214,852.3,214z"/>
	<path class="st1" d="M1034,277.3c3.2,0,3.2-5,0-5S1030.8,277.3,1034,277.3z"/>
	<path class="st1" d="M817.5,9.7c3.2,0,3.2-5,0-5S814.3,9.7,817.5,9.7z"/>
</g>
</svg>
